<svg xmlns="http://www.w3.org/2000/svg" version="1.1" xmlns:xlink="http://www.w3.org/1999/xlink" width="512" height="512" x="0" y="0" viewBox="0 0 64 64" style="enable-background:new 0 0 512 512" xml:space="preserve" class=""><g><path fill="#ffffff" d="M32 35.39c-1.19 0-2.32-.49-3.14-1.35L3.56 7.3a4.338 4.338 0 0 1 .17-6.12 4.338 4.338 0 0 1 6.12.17L32 24.77 54.15 1.35a4.317 4.317 0 0 1 6.11-.17 4.33 4.33 0 0 1 .18 6.12l-25.3 26.74c-.82.86-1.95 1.35-3.14 1.35z" opacity="1" data-original="#010101" class=""></path><path fill="#ffffff" d="M32 64c-1.19 0-2.32-.49-3.14-1.35L3.56 35.91c-1.64-1.74-1.56-4.48.17-6.12s4.47-1.56 6.11.17L32 53.38l22.16-23.42c1.64-1.74 4.38-1.81 6.11-.17s1.81 4.38.17 6.11l-25.3 26.74C34.32 63.51 33.19 64 32 64z" opacity="1" data-original="#010101" class=""></path></g></svg>