<svg xmlns="http://www.w3.org/2000/svg" version="1.1" xmlns:xlink="http://www.w3.org/1999/xlink" width="512" height="512" x="0" y="0" viewBox="0 0 512.001 512.001" style="enable-background:new 0 0 512 512" xml:space="preserve"><g><path d="m441.658 104.515-23.609-23.609c-19.527-19.538-51.316-19.527-70.832 0l-7.869 7.869-23.614-23.614c-6.521-6.521-17.087-6.521-23.609 0l-44.575 44.575c-21.699-9.182-45.244-14.01-69.55-14.01-47.625 0-92.343 18.494-125.924 52.076-69.435 69.435-69.435 182.419 0 251.853 33.582 33.582 78.299 52.076 125.924 52.076s92.348-18.494 125.93-52.076c33.582-33.582 52.076-78.299 52.076-125.924 0-24.306-4.828-47.851-14.01-69.551l44.575-44.575c6.521-6.516 6.521-17.092 0-23.609l-23.614-23.614 7.869-7.869c6.506-6.506 17.097-6.516 23.614 0l23.609 23.609c3.261 3.261 7.533 4.892 11.804 4.892s8.544-1.631 11.804-4.892c6.522-6.515 6.522-17.092.001-23.607zM280.321 376.047C253.044 403.319 216.707 418.34 178 418.34s-75.038-15.022-102.315-42.293c-56.414-56.418-56.414-148.217 0-204.636 27.277-27.272 63.608-42.293 102.315-42.293 22.581 0 44.351 5.121 63.991 14.796.474.305.957.599 1.465.856 11.984 6.082 22.928 13.665 32.612 22.57l.388.362c1.31 1.213 2.6 2.448 3.863 3.71a143.905 143.905 0 0 1 3.71 3.863c.12.129.242.259.362.39 8.905 9.683 16.489 20.628 22.57 32.612.257.509.551.991.856 1.465 9.675 19.64 14.796 41.411 14.796 63.991.002 38.706-15.02 75.037-42.292 102.314zm45.008-202.416a178.96 178.96 0 0 0-18.444-22.8 175.85 175.85 0 0 0-5.985-5.985 179.047 179.047 0 0 0-22.8-18.444l25.828-25.828 47.229 47.229-25.828 25.828zM507.107 167.232l-11.129-11.13c-6.511-6.521-17.087-6.521-23.609 0-6.521 6.516-6.521 17.087 0 23.609l11.13 11.13a16.642 16.642 0 0 0 11.804 4.892 16.64 16.64 0 0 0 11.804-4.892c6.522-6.516 6.522-17.087 0-23.609z" fill="#ffffff" opacity="1" data-original="#000000"></path><path d="M440.326 156.102c-6.521-6.522-17.097-6.522-23.608 0l-11.13 11.13c-6.521 6.521-6.521 17.092 0 23.609 3.261 3.261 7.533 4.892 11.804 4.892s8.544-1.631 11.804-4.892l11.13-11.13c6.521-6.522 6.521-17.092 0-23.609zM507.11 89.319a16.643 16.643 0 0 0-11.805-4.892 16.639 16.639 0 0 0-11.804 4.892l-11.13 11.13c-6.521 6.521-6.521 17.092 0 23.609 6.521 6.521 17.097 6.521 23.609 0l11.13-11.13c6.521-6.521 6.521-17.092 0-23.609zM256.762 328.711c-6.522-6.522-17.087-6.522-23.609 0-14.733 14.733-34.294 22.847-55.066 22.847s-40.331-8.114-55.066-22.847c-6.521-6.521-17.087-6.521-23.609 0-6.521 6.516-6.521 17.092 0 23.609 21.038 21.043 48.978 32.63 78.674 32.63s57.636-11.587 78.674-32.63c6.523-6.517 6.523-17.093.002-23.609z" fill="#ffffff" opacity="1" data-original="#000000"></path></g></svg>