<svg xmlns="http://www.w3.org/2000/svg" version="1.1" xmlns:xlink="http://www.w3.org/1999/xlink" width="512" height="512" x="0" y="0" viewBox="0 0 128 128" style="enable-background:new 0 0 512 512" xml:space="preserve" class=""><g><path d="M58 88.08H35.71a2 2 0 0 1-2-2v-57a2 2 0 0 1 2-2H58a2 2 0 0 1 2 2v57a2 2 0 0 1-2 2zm-20.28-4H56v-53H37.71z" fill="#ffffff" opacity="1" data-original="#000000" class=""></path><path d="M46.85 30.92a2 2 0 0 1-2-2V2a2 2 0 1 1 4 0v27a2 2 0 0 1-2 1.92zM46.85 107.34a2 2 0 0 1-2-2V86.08a2 2 0 0 1 4 0v19.25a2 2 0 0 1-2 2.01zM125.8 76.22h-22.28a2 2 0 0 1-2-2V44.68a2 2 0 0 1 2-2h22.28a2 2 0 0 1 2 2v29.54a2 2 0 0 1-2 2zm-20.28-4h18.28V46.68h-18.28z" fill="#ffffff" opacity="1" data-original="#000000" class=""></path><path d="M114.66 46.51a2 2 0 0 1-2-2v-20.9a2 2 0 0 1 4 0v20.9a2 2 0 0 1-2 2zM114.66 101.77a2 2 0 0 1-2-2V74.22a2 2 0 0 1 4 0v25.55a2 2 0 0 1-2 2zM91.89 43.43H69.61a2 2 0 0 1-2-2v-24a2 2 0 0 1 2-2h22.28a2 2 0 0 1 2 2v24a2 2 0 0 1-2 2zm-20.28-4h18.28v-20H71.61z" fill="#ffffff" opacity="1" data-original="#000000" class=""></path><path d="M80.75 19.3a2 2 0 0 1-2-2V2a2 2 0 1 1 4 0v15.3a2 2 0 0 1-2 2zM80.75 80.12a2 2 0 0 1-2-2V41.43a2 2 0 0 1 4 0v36.69a2 2 0 0 1-2 2zM24.08 109H1.8a2 2 0 0 1-2-2V90.5a2 2 0 0 1 2-2h22.28a2 2 0 0 1 2 2V107a2 2 0 0 1-2 2zM3.8 105h18.28V92.5H3.8z" fill="#ffffff" opacity="1" data-original="#000000" class=""></path><path d="M12.94 128a2 2 0 0 1-2-2v-19a2 2 0 0 1 4 0v19a2 2 0 0 1-2 2zM12.94 92.5a2 2 0 0 1-2-2V37.32a2 2 0 0 1 4 0V90.5a2 2 0 0 1-2 2z" fill="#ffffff" opacity="1" data-original="#000000" class=""></path></g></svg>