<svg xmlns="http://www.w3.org/2000/svg" version="1.1" xmlns:xlink="http://www.w3.org/1999/xlink" width="512" height="512" x="0" y="0" viewBox="0 0 24 24" style="enable-background:new 0 0 512 512" xml:space="preserve" class=""><g><path fill="#ffffff" d="m18.54 3.723-.563.494zm2.923 3.328.564-.494zm.096 2.744.597.453zM13.685 20.16l-.597-.454zm-3.37 0 .597-.454zM2.44 9.795l-.597.453zm.096-2.744.564.495zM5.46 3.723l-.563-.495zm16.11 5.41a.75.75 0 1 0 0-1.5zM12 20.763l-.71.244a.75.75 0 0 0 1.42 0zM2.432 7.633a.75.75 0 0 0 0 1.5zm15.545-3.416 2.922 3.33 1.128-.99-2.922-3.33zm2.985 5.124-7.874 10.365 1.195.907 7.873-10.365zm-10.05 10.365L3.038 9.341l-1.194.907 7.873 10.365zM3.1 7.546l2.922-3.329-1.127-.99-2.923 3.33zM14.126 3.75h2.826v-1.5h-2.826zm2.127 5.383h5.315v-1.5h-5.315zm-2.824-5.857 2.126 5.382 1.395-.55-2.126-5.384zm-.72 17.731 4.253-12.38-1.419-.488-4.252 12.38zM7.05 3.75h3.06v-1.5H7.05zm3.06 0h4.017v-1.5H10.11zM2.433 9.133h5.315v-1.5H2.432zm5.315 0h8.506v-1.5H7.747zm1.676-6.434L7.061 8.08l1.373.603 2.363-5.383zm3.286 17.82L8.457 8.14l-1.419.488 4.253 12.38zM3.04 9.342A1.424 1.424 0 0 1 3.1 7.546l-1.128-.99a2.924 2.924 0 0 0-.13 3.692zm10.05 10.365a1.36 1.36 0 0 1-2.177 0l-1.195.907a2.86 2.86 0 0 0 4.566 0zm7.81-12.16c.443.504.47 1.26.063 1.795l1.194.907a2.924 2.924 0 0 0-.13-3.691zm-1.794-4.318a2.865 2.865 0 0 0-2.153-.978v1.5c.39 0 .763.169 1.025.467zm-13.082.99a1.365 1.365 0 0 1 1.025-.468v-1.5c-.825 0-1.608.357-2.152.978z" opacity="1" data-original="#28303f" class=""></path></g></svg>