<svg xmlns="http://www.w3.org/2000/svg" version="1.1" xmlns:xlink="http://www.w3.org/1999/xlink" width="512" height="512" x="0" y="0" viewBox="0 0 24 24" style="enable-background:new 0 0 512 512" xml:space="preserve" fill-rule="evenodd"><g><path d="M14.011 12.739c0-.729-.29-1.429-.806-1.944a2.747 2.747 0 0 0-1.944-.806h-7a2.75 2.75 0 0 0-2.75 2.75v7c0 .73.29 1.429.805 1.945a2.753 2.753 0 0 0 1.945.805h7a2.75 2.75 0 0 0 2.75-2.75zm-1.5 0v7a1.25 1.25 0 0 1-1.25 1.25h-7a1.246 1.246 0 0 1-1.25-1.25v-7a1.25 1.25 0 0 1 1.25-1.25h7a1.254 1.254 0 0 1 1.25 1.25z" fill="#ffffff" opacity="1" data-original="#000000"></path><path d="m16.007 15.65.431.155a2.752 2.752 0 0 0 3.518-1.656l2.371-6.587a2.747 2.747 0 0 0-1.657-3.518l-6.586-2.371a2.747 2.747 0 0 0-2.102.1c-.66.31-1.17.87-1.417 1.557l-1.51 4.196a.75.75 0 0 0 1.411.508l1.511-4.196a1.247 1.247 0 0 1 1.599-.753l6.586 2.37a1.25 1.25 0 0 1 .753 1.599l-2.37 6.587a1.252 1.252 0 0 1-1.599.753l-.431-.155a.75.75 0 0 0-.508 1.411z" fill="#ffffff" opacity="1" data-original="#000000"></path><circle cx="7.761" cy="16.239" r="1" fill="#ffffff" opacity="1" data-original="#000000"></circle><path d="M15.599 7.798a1 1 0 1 0-.676 1.882 1 1 0 0 0 .676-1.882z" fill="#ffffff" opacity="1" data-original="#000000"></path><circle cx="10.261" cy="13.739" r="1" fill="#ffffff" opacity="1" data-original="#000000"></circle><path d="M11.261 18.739a1 1 0 1 0-2 0 1 1 0 0 0 2 0zM17.707 12.277a1 1 0 1 0-1.883-.677 1 1 0 0 0 1.883.677z" fill="#ffffff" opacity="1" data-original="#000000"></path><circle cx="5.261" cy="18.739" r="1" fill="#ffffff" opacity="1" data-original="#000000"></circle><path d="M6.261 13.739a1 1 0 1 0-2 0 1 1 0 0 0 2 0zM14.696 5.879a1.001 1.001 0 1 0-1.884-.677 1.001 1.001 0 0 0 1.884.677z" fill="#ffffff" opacity="1" data-original="#000000"></path></g></svg>