<svg xmlns="http://www.w3.org/2000/svg" version="1.1" xmlns:xlink="http://www.w3.org/1999/xlink" width="512" height="512" x="0" y="0" viewBox="0 0 511.999 511.999" style="enable-background:new 0 0 512 512" xml:space="preserve" class=""><g><path d="M256 0 34.297 128v255.998l221.703 128 221.703-128V128L256 0zm15.001 43.303 161.7 93.357-60.046 34.667-101.654-58.69V43.303zm-30.002.001v69.334l-101.654 58.69L79.3 136.661l161.699-93.357zm-176.7 119.339 60.045 34.667v117.38l-60.045 34.667V162.643zm176.7 306.054-161.7-93.358 60.045-34.668 101.654 58.69v69.336zm-86.653-154.008V197.31L256 138.62l101.654 58.69v117.38L256 373.379l-101.654-58.69zM271 468.697v-69.335l101.654-58.69 60.045 34.667L271 468.697zm176.701-119.34-60.045-34.667V197.31l60.045-34.667v186.714z" fill="#ffffff" opacity="1" data-original="#000000"></path></g></svg>