<svg xmlns="http://www.w3.org/2000/svg" version="1.1" xmlns:xlink="http://www.w3.org/1999/xlink" width="512" height="512" x="0" y="0" viewBox="0 0 24 24" style="enable-background:new 0 0 512 512" xml:space="preserve" class=""><g><path d="m20.463 7.713-9.1-6.677A5.317 5.317 0 0 0 2.9 5.323v13.354a5.311 5.311 0 0 0 8.46 4.287l9.105-6.677a5.315 5.315 0 0 0 0-8.574zm-1.774 6.155-9.1 6.677A2.317 2.317 0 0 1 5.9 18.677V5.323a2.276 2.276 0 0 1 1.27-2.066A2.328 2.328 0 0 1 8.223 3a2.3 2.3 0 0 1 1.362.455l9.1 6.677a2.316 2.316 0 0 1 0 3.736z" fill="#ffffff" opacity="1" data-original="#000000" class=""></path></g></svg>