<svg xmlns="http://www.w3.org/2000/svg" version="1.1" xmlns:xlink="http://www.w3.org/1999/xlink" width="512" height="512" x="0" y="0" viewBox="0 0 512 512" style="enable-background:new 0 0 512 512" xml:space="preserve" class=""><g><path d="M221 219.4c-20 20-20 52.4 0 72.5 20 20 52.4 20 72.5 0 20-20 20-52.4 0-72.5-20.1-20-52.5-20-72.5 0zM365.9 146.9c-10-10-26.2-10-36.2 0s-10 26.2 0 36.2c39.9 40 39.9 105 0 144.9-10 10-10 26.2 0 36.2 5 5 11.6 7.5 18.1 7.5 6.6 0 13.1-2.5 18.1-7.5 59.9-59.8 59.9-157.3 0-217.3zM184.7 146.9c-10-10-26.2-10-36.2 0-29 29-45 67.6-45 108.7s16 79.7 45 108.7c5 5 11.6 7.5 18.1 7.5 6.6 0 13.1-2.5 18.1-7.5 10-10 10-26.2 0-36.2-40-40-40-105 0-144.9 10.1-10 10.1-26.2 0-36.3z" fill="#ffffff" opacity="1" data-original="#000000"></path><path d="M438.3 74.5c-10-10-26.2-10-36.2 0s-10 26.2 0 36.2c79.9 79.9 79.9 209.9 0 289.8-10 10-10 26.2 0 36.2 5 5 22.9 15.7 36.2 0 91.1-107.9 99.9-262.3 0-362.2zM112.3 110.7c10-10 10-26.2 0-36.2s-26.2-10-36.2 0c-99.9 99.9-97.6 260.2 0 362.3 13.7 14.4 31.2 5 36.2 0 10-10 10-26.2 0-36.2-79.9-80-79.9-210 0-289.9z" fill="#ffffff" opacity="1" data-original="#000000"></path></g></svg>