<svg xmlns="http://www.w3.org/2000/svg" version="1.1" xmlns:xlink="http://www.w3.org/1999/xlink" width="512" height="512" x="0" y="0" viewBox="0 0 512 512" style="enable-background:new 0 0 512 512" xml:space="preserve"><g><path d="M512 95.328V15c0-8.281-6.719-15-15-15h-80.328c-3.98 0-7.8 1.578-10.613 4.39L256 154.45 105.941 4.39A15.01 15.01 0 0 0 95.328 0H15C6.719 0 0 6.719 0 15v80.328c0 3.98 1.578 7.8 4.39 10.613L154.45 256l-26.981 26.977c-1.89-1.88-3.719-3.711-5.469-5.461-19.14-19.098-50.27-19.098-69.398 0-19.23 19.203-19.211 50.25 0 69.43 6.359 6.35 13.68 13.66 21.52 21.511 0 0-61.231 61.191-61.2 61.172-.012.008-.024.02-.031.02C4.578 437.988 0 449.085 0 460.898c0 28.32 22.93 51.097 51.07 51.097 11.828 0 22.93-4.598 31.27-12.96l61.191-61.157c7.848 7.86 15.168 15.168 21.54 21.527 19.128 19.11 50.257 19.102 69.39.012 19.238-19.211 19.21-50.27 0-69.441-1.742-1.739-3.57-3.57-5.45-5.438L256 357.551l26.988 26.988c-1.879 1.871-3.707 3.7-5.449 5.441-19.21 19.168-19.238 50.23 0 69.442 19.133 19.09 50.262 19.098 69.39-.012 6.372-6.36 13.692-13.672 21.54-21.531l61.191 61.16C438 507.4 449.102 512 460.93 512c28.14 0 51.07-22.781 51.07-51.102 0-11.808-4.578-22.91-12.89-31.25-.008 0-.02-.007-.032-.02.031.02-61.2-61.167-61.2-61.167 7.84-7.852 15.161-15.16 21.52-21.512 19.211-19.18 19.23-50.23 0-69.43-19.128-19.097-50.257-19.097-69.398 0-1.75 1.75-3.578 3.583-5.469 5.461L357.551 256l150.058-150.059A15.01 15.01 0 0 0 512 95.328zM30 89.121V30h59.121L234.79 175.672l-59.117 59.117zm31.121 388.707c-6.883 6.89-18.34 4.59-24.89-1.992-6.7-6.629-8.922-18.149-2.102-25l61.2-61.16 26.991 26.992zm152.149-39.652c-7.45 7.441-19.56 7.441-27.008 0L73.8 325.719c-7.473-7.461-7.473-19.524 0-26.973 7.449-7.437 19.558-7.43 27 0L213.27 411.207c7.48 7.48 7.46 19.531 0 26.969zM477.87 450.84c6.82 6.851 4.598 18.37-2.101 25-6.551 6.582-18.008 8.879-24.891 1.988l-61.2-61.156 26.993-26.992zM411.2 298.75c7.442-7.43 19.551-7.441 27 0 7.473 7.45 7.473 19.512 0 26.969l-112.46 112.46c-7.45 7.442-19.56 7.442-27.009 0-7.46-7.44-7.48-19.488 0-26.968zm-47.879 5.45-59.12 59.12-26.99-26.992 59.118-59.117zM482 89.12 207.8 363.316 148.685 304.2 422.879 30H482zm0 0" fill="#ffffff" opacity="1" data-original="#000000"></path></g></svg>