<svg xmlns="http://www.w3.org/2000/svg" version="1.1" xmlns:xlink="http://www.w3.org/1999/xlink" width="512" height="512" x="0" y="0" viewBox="0 0 64 64" style="enable-background:new 0 0 512 512" xml:space="preserve"><g><g fill="#000"><path d="M32 6C17.64 6 6 17.64 6 32s11.64 26 26 26 26-11.64 26-26a2 2 0 1 1 4 0c0 16.569-13.431 30-30 30S2 48.569 2 32 15.431 2 32 2a2 2 0 1 1 0 4z" fill="#ffffff" opacity="1" data-original="#000000"></path><path d="M32 20c-6.627 0-12 5.373-12 12s5.373 12 12 12 12-5.373 12-12a2 2 0 1 1 4 0c0 8.837-7.163 16-16 16s-16-7.163-16-16 7.163-16 16-16a2 2 0 1 1 0 4z" fill="#ffffff" opacity="1" data-original="#000000"></path><path fill-rule="evenodd" d="m42.033 11.512.315 7.252-10.762 10.763a2 2 0 1 0 2.828 2.829l10.763-10.763 7.253.315a2 2 0 0 0 1.5-.584l7.425-7.424a2 2 0 0 0-1.327-3.413l-6.3-.273-.274-6.3a2 2 0 0 0-3.412-1.328l-7.425 7.425a2 2 0 0 0-.584 1.5zm4.27 6.126-.236-5.421 3.588-3.588.156 3.59a2 2 0 0 0 1.911 1.911l3.59.156-3.588 3.588z" clip-rule="evenodd" fill="#ffffff" opacity="1" data-original="#000000"></path></g></g></svg>