<svg xmlns="http://www.w3.org/2000/svg" version="1.1" xmlns:xlink="http://www.w3.org/1999/xlink" width="512" height="512" x="0" y="0" viewBox="0 0 64 64" style="enable-background:new 0 0 512 512" xml:space="preserve" class=""><g><g fill="#000"><path d="M28 32a2 2 0 0 1-.662 1.487l-10 9a2 2 0 1 1-2.676-2.974L23.01 32l-8.348-7.513a2 2 0 0 1 2.676-2.974l10 9A2 2 0 0 1 28 32zM48 43a2 2 0 1 0 0-4H32a2 2 0 1 0 0 4z" fill="#ffffff" opacity="1" data-original="#000000"></path><path fill-rule="evenodd" d="M2 18C2 9.163 9.163 2 18 2h28c8.837 0 16 7.163 16 16v28c0 8.837-7.163 16-16 16H18C9.163 62 2 54.837 2 46zM18 6C11.373 6 6 11.373 6 18v28c0 6.627 5.373 12 12 12h28c6.627 0 12-5.373 12-12V18c0-6.627-5.373-12-12-12z" clip-rule="evenodd" fill="#ffffff" opacity="1" data-original="#000000"></path></g></g></svg>